<svg xmlns="http://www.w3.org/2000/svg" viewBox="0 0 512 512" fill="#3730A3" role="img" aria-label="Accredit">
  <g transform="translate(0,512) scale(0.05,-0.05)">
    <path d="M4970 8709 c-610 -57 -1140 -422 -1400 -964 -50 -104 -73 -171 -418
-1215 -616 -1864 -783 -2372 -780 -2376 2 -2 38 37 79 87 321 392 701 606
1229 690 57 10 174 14 356 14 l271 -1 508 1521 c530 1587 561 1673 659 1802
126 166 294 273 429 273 114 0 -221 108 -463 149 -160 27 -316 34 -470 20z"/>
    <path d="M5918 8345 c-227 -62 -340 -198 -453 -545 -26 -80 -85 -258 -131
-396 l-83 -251 306 -924 c168 -508 400 -1211 517 -1563 l211 -639 220 -126
c121 -70 294 -170 385 -223 354 -204 628 -363 930 -538 173 -100 334 -193 357
-206 23 -13 45 -24 49 -24 25 0 -6 259 -46 380 -68 206 -279 858 -432 1330
-27 85 -58 180 -68 210 -10 30 -64 197 -120 370 -56 173 -114 353 -130 400
-15 47 -69 211 -120 365 -468 1431 -644 1942 -707 2049 -159 273 -427 402
-685 331z"/>
    <path d="M3805 4765 c-66 -7 -131 -15 -145 -18 -510 -115 -811 -293 -1070
-631 -65 -85 -72 -102 -37 -92 49 15 239 19 314 6 175 -28 264 -64 523 -210
91 -51 235 -132 320 -180 85 -48 421 -237 745 -420 486 -274 1574 -887 2050
-1155 61 -34 255 -144 432 -244 178 -100 344 -191 370 -202 693 -302 1319 257
1097 981 -42 136 -41 135 -83 114 -60 -30 -151 -2 -297 91 -61 39 -239 144
-469 277 -71 41 -285 165 -475 275 -439 254 -900 519 -1150 661 -107 60 -303
171 -435 246 -788 448 -1157 557 -1690 501z"/>
    <path d="M2625 3854 c-171 -35 -263 -82 -367 -186 l-77 -78 -175 -529 c-222
-670 -235 -757 -157 -984 230 -673 1126 -746 1449 -119 43 85 487 1404 479
1425 -6 16 -640 372 -737 414 -118 51 -312 77 -415 57z"/>
  </g>
</svg>
